<?xml version="1.0" encoding="utf-8"?>
<!-- Generator: Adobe Illustrator 27.0.0, SVG Export Plug-In . SVG Version: 6.00 Build 0)  -->
<svg version="1.1" id="Layer_1" xmlns="http://www.w3.org/2000/svg" xmlns:xlink="http://www.w3.org/1999/xlink" x="0px" y="0px"
	 viewBox="0 0 500 500" style="enable-background:new 0 0 500 500;" xml:space="preserve">
<style type="text/css">
	.st0{fill:#BDA5CF;}
	.st1{fill:#64457F;}
	.st2{fill:#FFFFFF;}
</style>
<rect class="st0" width="500" height="500"/>
<g>
	<path class="st1" d="M347.6,229.9h-87.1v-25.9h119.3v188.2h-32.1V229.9z M334.8,139.6c0-14.7,10.8-24.8,25.6-24.8
		s25.6,10.1,25.6,24.8s-10.8,24.8-25.6,24.8S334.8,154.7,334.8,139.6z"/>
	<path class="st1" d="M106.3,138.9h32.1v226.5h125.5v27.5H106.3V138.9z"/>
	<path class="st2" d="M114.9,130.3H147v226.5h125.5v27.5H114.9V130.3z"/>
	<path class="st2" d="M355.3,222.1h-87.1v-25.9h119.3v188.2h-32.1V222.1z M342.5,131.9c0-14.7,10.8-24.8,25.6-24.8
		s25.6,10.1,25.6,24.8s-10.8,24.8-25.6,24.8S342.5,147,342.5,131.9z"/>
</g>
</svg>
